<?xml version="1.0" standalone="no"?><!DOCTYPE svg PUBLIC "-//W3C//DTD SVG 1.1//EN" "http://www.w3.org/Graphics/SVG/1.1/DTD/svg11.dtd"><svg t="1572867522208" class="icon" viewBox="0 0 1025 1024" version="1.1" xmlns="http://www.w3.org/2000/svg" p-id="2940" xmlns:xlink="http://www.w3.org/1999/xlink" width="200.1953125" height="200"><defs><style type="text/css"></style></defs><path d="M768 256H640a128 128 0 0 0-256 0H256a64.19 64.19 0 0 0-64 64v512a64.19 64.19 0 0 0 64 64h512a64.19 64.19 0 0 0 64-64V320a64.19 64.19 0 0 0-64-64zM480 576v221.33c-90.8-15.24-160-94.2-160-189.33s69.2-174.09 160-189.33z m-32-320a64 64 0 1 1 64 64 64 64 0 0 1-64-64z m96 541.33V640h157.33A192.14 192.14 0 0 1 544 797.33zM544 576V418.67A192.14 192.14 0 0 1 701.33 576z" p-id="2941"></path></svg>