<?xml version="1.0" standalone="no"?><!DOCTYPE svg PUBLIC "-//W3C//DTD SVG 1.1//EN" "http://www.w3.org/Graphics/SVG/1.1/DTD/svg11.dtd"><svg t="1572867535335" class="icon" viewBox="0 0 1024 1024" version="1.1" xmlns="http://www.w3.org/2000/svg" p-id="3057" xmlns:xlink="http://www.w3.org/1999/xlink" width="200" height="200"><defs><style type="text/css"></style></defs><path d="M610.461538 535.630769 610.461538 330.830769 405.661538 330.830769l0 133.907692L271.753846 464.738462l0 330.830769 133.907692 0 63.015385 0 63.015385 0 63.015385 0 133.907692 0L728.615385 535.630769 610.461538 535.630769zM405.661538 732.553846 342.646154 732.553846 342.646154 535.630769l63.015385 0L405.661538 732.553846zM539.569231 732.553846 476.553846 732.553846 476.553846 401.723077l63.015385 0L539.569231 732.553846zM673.476923 732.553846 610.461538 732.553846 610.461538 598.646154l63.015385 0L673.476923 732.553846z" p-id="3058"></path><path d="M704.984615 133.907692 673.476923 133.907692C657.723077 55.138462 586.830769 0 508.061538 0S358.4 55.138462 342.646154 133.907692L311.138462 133.907692c-15.753846 0-31.507692 15.753846-31.507692 31.507692 0 15.753846 15.753846 31.507692 31.507692 31.507692L704.984615 196.923077c15.753846 0 31.507692-15.753846 31.507692-31.507692C744.369231 149.661538 728.615385 133.907692 704.984615 133.907692zM413.538462 133.907692c15.753846-39.384615 47.261538-63.015385 94.523077-63.015385s78.769231 31.507692 94.523077 63.015385L413.538462 133.907692z" p-id="3059"></path><path d="M838.892308 133.907692c-15.753846 0-31.507692 15.753846-31.507692 31.507692 0 15.753846 15.753846 31.507692 31.507692 31.507692 15.753846 0 31.507692 15.753846 31.507692 31.507692l0 669.538462c0 15.753846-15.753846 31.507692-31.507692 31.507692L177.230769 929.476923c-15.753846 0-31.507692-15.753846-31.507692-31.507692L145.723077 236.307692c0-15.753846 15.753846-31.507692 31.507692-31.507692 15.753846 0 31.507692-15.753846 31.507692-31.507692 0-15.753846-15.753846-31.507692-31.507692-31.507692C122.092308 133.907692 74.830769 181.169231 74.830769 236.307692l0 669.538462c0 55.138462 47.261538 102.4 102.4 102.4l669.538462 0c55.138462 0 102.4-47.261538 102.4-102.4L949.169231 236.307692C941.292308 181.169231 894.030769 133.907692 838.892308 133.907692L838.892308 133.907692z" p-id="3060"></path></svg>