<?xml version="1.0" encoding="UTF-8"?>
<svg width="36px" height="36px" viewBox="0 0 36 36" version="1.1" xmlns="http://www.w3.org/2000/svg" xmlns:xlink="http://www.w3.org/1999/xlink">
    <!-- Generator: Sketch 59.1 (86144) - https://sketch.com -->
    <title>数据</title>
    <desc>Created with Sketch.</desc>
    <g id="页面-1" stroke="none" stroke-width="1" fill="none" fill-rule="evenodd">
        <g id="暂无数据-占位符" transform="translate(-117.000000, -137.000000)" fill-rule="nonzero">
            <g id="数据" transform="translate(115.000000, 135.000000)">
                <rect id="矩形" fill="#000000" opacity="0" x="0" y="0" width="40" height="40"></rect>
                <path d="M26.25,2.5 L5,2.5 C3.61928813,2.5 2.5,3.61928813 2.5,5 L2.5,30 C2.5,31.3807119 3.61928813,32.5 5,32.5 L13.125,32.5 L13.125,30.625 L5,30.625 C4.65482203,30.625 4.375,30.345178 4.375,30 L4.375,5 C4.375,4.65482203 4.65482203,4.375 5,4.375 L26.25,4.375 C26.595178,4.375 26.875,4.65482203 26.875,5 L26.875,9.375 L28.75,9.375 L28.75,5 C28.75,3.61928813 27.6307119,2.5 26.25,2.5 Z" id="路径" fill="#DBDBDB"></path>
                <path d="M35,7.5 L13.75,7.5 C12.3692881,7.5 11.25,8.61928813 11.25,10 L11.25,35 C11.25,36.3807119 12.3692881,37.5 13.75,37.5 L35,37.5 C36.3807119,37.5 37.5,36.3807119 37.5,35 L37.5,10 C37.5,8.61928813 36.3807119,7.5 35,7.5 Z M35.625,35 C35.625,35.345178 35.345178,35.625 35,35.625 L13.75,35.625 C13.404822,35.625 13.125,35.345178 13.125,35 L13.125,10 C13.125,9.65482203 13.404822,9.375 13.75,9.375 L35,9.375 C35.345178,9.375 35.625,9.65482203 35.625,10 L35.625,35 Z" id="形状" fill="#DBDBDB"></path>
                <path d="M16.5625,26.875 L32.1875,26.875 C32.8125,26.875 33.125,27.1875 33.125,27.8125 L33.125,27.8125 C33.125,28.4375 32.8125,28.75 32.1875,28.75 L16.5625,28.75 C15.9375,28.75 15.625,28.4375 15.625,27.8125 L15.625,27.8125 C15.625,27.1875 15.9375,26.875 16.5625,26.875 Z" id="路径" fill="#B8B8B8"></path>
                <path d="M32.1875,26.875 L16.5625,26.875 C16.044733,26.875 15.625,27.294733 15.625,27.8125 C15.625,28.330267 16.044733,28.75 16.5625,28.75 L32.1875,28.75 C32.705267,28.75 33.125,28.330267 33.125,27.8125 C33.125,27.294733 32.705267,26.875 32.1875,26.875 L32.1875,26.875 Z M15.625,25.3125043 C15.3765798,25.3116005 15.1385324,25.2127884 14.9625,25.0375 C14.7853925,24.8625413 14.6857118,24.623953 14.6857118,24.375 C14.6857118,24.126047 14.7853925,23.8874587 14.9625,23.7125 L20.5875,18.0875 C20.9101492,17.7617832 21.4218692,17.7193608 21.79375,17.9875 L25.45,20.625 L32.39375,11.9125 C32.7182173,11.5086418 33.3086418,11.4442828 33.7125,11.76875 C34.1163582,12.0932173 34.1807173,12.6836418 33.85625,13.0875 L26.35625,22.4625 C26.0471335,22.8345904 25.5056646,22.9103961 25.10625,22.6375 L21.35625,19.975 L16.29375,25.0375 C16.116183,25.2143155 15.8755857,25.3132527 15.625,25.3125043 Z" id="形状" fill="#DBDBDB"></path>
            </g>
        </g>
    </g>
</svg>