<?xml version="1.0" encoding="UTF-8"?>
<svg width="16px" height="17px" viewBox="0 0 16 17" version="1.1" xmlns="http://www.w3.org/2000/svg" xmlns:xlink="http://www.w3.org/1999/xlink">
    <!-- Generator: Sketch 58 (84663) - https://sketch.com -->
    <title>密码</title>
    <desc>Created with Sketch.</desc>
    <g id="页面-1" stroke="none" stroke-width="1" fill="none" fill-rule="evenodd">
        <g id="视界-验证码登录" transform="translate(-1092.000000, -696.000000)" fill-rule="nonzero">
            <g id="登录" transform="translate(770.000000, 374.000000)">
                <g id="密码" transform="translate(40.000000, 322.000000)">
                    <g transform="translate(280.000000, 0.000000)">
                        <rect id="矩形" fill="#000000" opacity="0" x="0" y="0" width="20" height="20"></rect>
                        <path d="M15.625,15.25 C15.970178,15.25 16.25,14.970178 16.25,14.625 L16.25,8.375 C16.25,8.02982203 15.970178,7.75 15.625,7.75 L4.375,7.75 C4.02982203,7.75 3.75,8.02982203 3.75,8.375 L3.75,14.625 C3.75,14.970178 4.02982203,15.25 4.375,15.25 L15.625,15.25 Z M15.625,16.5 L4.375,16.5 C3.33946609,16.5 2.5,15.6605339 2.5,14.625 L2.5,8.375 C2.5,7.33946609 3.33946609,6.5 4.375,6.5 L15.625,6.5 C16.6605339,6.5 17.5,7.33946609 17.5,8.375 L17.5,14.625 C17.5,15.6605339 16.6605339,16.5 15.625,16.5 L15.625,16.5 Z M9.375,10.25 C9.375,9.90482203 9.65482203,9.625 10,9.625 C10.345178,9.625 10.625,9.90482203 10.625,10.25 L10.625,12.75 C10.625,13.095178 10.345178,13.375 10,13.375 C9.65482203,13.375 9.375,13.095178 9.375,12.75 L9.375,10.25 Z M6.875,7.125 C6.875,7.47017797 6.59517797,7.75 6.25,7.75 C5.90482203,7.75 5.625,7.47017797 5.625,7.125 L5.625,5.25 C5.625,2.83375422 7.58375422,0.875 10,0.875 C12.4162458,0.875 14.375,2.83375422 14.375,5.25 L14.375,7.125 C14.375,7.47017797 14.095178,7.75 13.75,7.75 C13.404822,7.75 13.125,7.47017797 13.125,7.125 L13.125,5.25 C13.125,3.52411016 11.7258898,2.125 10,2.125 C8.27411016,2.125 6.875,3.52411016 6.875,5.25 L6.875,7.125 Z" id="形状" fill="#DCDCDC"></path>
                    </g>
                </g>
            </g>
        </g>
    </g>
</svg>