<?xml version="1.0" encoding="UTF-8"?>
<svg width="12px" height="20px" viewBox="0 0 12 20" version="1.1" xmlns="http://www.w3.org/2000/svg" xmlns:xlink="http://www.w3.org/1999/xlink">
    <!-- Generator: Sketch 58 (84663) - https://sketch.com -->
    <title>注册登录-手机号</title>
    <desc>Created with Sketch.</desc>
    <g id="页面-1" stroke="none" stroke-width="1" fill="none" fill-rule="evenodd">
        <g id="视界-验证码登录" transform="translate(-1094.000000, -538.000000)" fill-rule="nonzero">
            <g id="登录" transform="translate(770.000000, 374.000000)">
                <g id="手机号" transform="translate(40.000000, 164.000000)">
                    <g id="编组-20">
                        <g id="注册登录-手机号" transform="translate(280.000000, 0.000000)">
                            <rect id="矩形" fill="#000000" opacity="0" x="0" y="0" width="20" height="20"></rect>
                            <path d="M14.0907482,0.909361816 L5.9097118,0.909361816 C4.90721391,0.909361816 4.09160816,1.72496756 4.09160816,2.72746545 L4.09160816,17.2725346 C4.09160816,18.2750324 4.90721391,19.0906382 5.9097118,19.0906382 L14.0907482,19.0906382 C15.0932461,19.0906382 15.9088518,18.2750324 15.9088518,17.2725346 L15.9088518,2.72746545 C15.9088518,1.72494756 15.0932461,0.909361816 14.0907482,0.909361816 Z M5.9097118,1.81840363 L14.0907482,1.81840363 C14.5919871,1.81840363 14.99979,2.2262065 14.99979,2.72746545 L14.99979,14.5453491 L5.00066998,14.5453491 L5.00066998,2.72746545 C5.00066998,2.2262065 5.40847285,1.81840363 5.9097118,1.81840363 Z M14.0907482,18.1815764 L5.9097118,18.1815764 C5.40847285,18.1815764 5.00066998,17.7737735 5.00066998,17.2725346 L5.00066998,15.4544309 L14.99979,15.4544309 L14.99979,17.2725346 C14.99979,17.7737735 14.5920071,18.1815764 14.0907482,18.1815764 Z M11.023137,16.3634727 L8.97776293,16.3634727 C8.72673348,16.3634727 8.52324201,16.5669842 8.52324201,16.8180137 C8.52324201,17.0690431 8.72673346,17.2725546 8.97776293,17.2725546 L11.023137,17.2725546 C11.2741665,17.2725546 11.4776779,17.0690431 11.4776779,16.8180137 C11.4776779,16.5669842 11.2741665,16.3634727 11.023137,16.3634727 Z" id="形状" fill="#DCDCDC"></path>
                        </g>
                    </g>
                </g>
            </g>
        </g>
    </g>
</svg>