<?xml version="1.0" encoding="UTF-8"?>
<svg width="16px" height="18px" viewBox="0 0 16 18" version="1.1" xmlns="http://www.w3.org/2000/svg" xmlns:xlink="http://www.w3.org/1999/xlink">
    <!-- Generator: Sketch 58 (84663) - https://sketch.com -->
    <title>YDUI-验证码</title>
    <desc>Created with Sketch.</desc>
    <g id="页面-1" stroke="none" stroke-width="1" fill="none" fill-rule="evenodd">
        <g id="视界-验证码登录" transform="translate(-1092.000000, -598.000000)" fill-rule="nonzero">
            <g id="登录" transform="translate(770.000000, 374.000000)">
                <g id="编组-18" transform="translate(40.000000, 223.000000)">
                    <g id="YDUI-验证码" transform="translate(280.000000, 0.000000)">
                        <rect id="矩形" fill="#000000" opacity="0" x="0" y="0" width="20" height="20"></rect>
                        <path d="M16.8956148,3.39609744 L10.5342478,1.33837258 C10.187303,1.22788748 9.81095816,1.22788748 9.46395344,1.33837258 L3.10260643,3.39609744 C2.56231275,3.57045922 2.19977854,4.06934098 2.19977854,4.63729592 L2.19977854,9.15499291 C2.19977854,11.7650633 3.45476766,14.2457414 5.5591209,15.7942515 L9.22573496,18.4907233 C9.45186164,18.6581697 9.71946021,18.7444712 9.99911061,18.7444712 C10.278801,18.7444712 10.5463596,18.6564309 10.7724463,18.4907233 L14.4408191,15.7942315 C16.5451724,14.2474202 17.8001815,11.7650433 17.8001815,9.15497293 L17.8001815,4.63729592 C17.7984227,4.069341 17.4359484,3.57045924 16.8956148,3.39609744 L16.8956148,3.39609744 Z M16.6867164,9.18433303 C16.6867164,11.4371256 15.6026114,13.5794731 13.7882815,14.9138084 L10.2494409,17.5153446 C10.1026604,17.622352 9.89554082,17.6241308 9.74708148,17.5153446 L6.20993967,14.9138084 C4.39387096,13.5794731 3.3115048,11.4371256 3.3115048,9.18433303 L3.3115048,4.82716719 C3.3115048,4.64419125 3.42888521,4.48192127 3.60324701,4.42669871 L9.74014619,2.44144471 C9.82472885,2.41382344 9.91109029,2.40003279 9.99911061,2.40003279 C10.0872508,2.40003279 10.1734924,2.41382344 10.258155,2.44144471 L16.3933753,4.42669871 C16.5677171,4.48192127 16.6851375,4.64419125 16.6851375,4.82716719 L16.6868563,9.18433303 L16.6867164,9.18433303 Z M13.8988066,6.16851775 L6.09945457,6.16851775 C5.85949727,6.16851775 5.66616834,6.36184668 5.66616834,6.601764 C5.66616834,6.84176129 5.85949727,7.24220979 6.09945457,7.24220979 L9.46225459,7.24220979 L9.46225459,13.499967 C9.46225459,13.7400043 9.7591533,13.9333332 9.99911061,13.9333332 C10.2390679,13.9333332 10.5532749,13.7400043 10.5532749,13.499967 L10.5532749,7.24220979 L13.8988266,7.24220979 C14.1387439,7.24220979 14.3320929,6.84176129 14.3320929,6.601764 C14.3320929,6.36184666 14.1387239,6.16851775 13.8988066,6.16851775 L13.8988066,6.16851775 Z" id="形状" fill="#DCDCDC"></path>
                    </g>
                </g>
            </g>
        </g>
    </g>
</svg>